<mxfile host="65bd71144e">
    <diagram id="Ka4JedE6QBkALKb633Jz" name="ページ1">
        <mxGraphModel dx="541" dy="692" grid="1" gridSize="10" guides="1" tooltips="1" connect="1" arrows="1" fold="1" page="1" pageScale="1" pageWidth="900" pageHeight="1600" math="0" shadow="0">
            <root>
                <mxCell id="0"/>
                <mxCell id="1" parent="0"/>
                <mxCell id="17" value="" style="group;aspect=fixed;" parent="1" vertex="1" connectable="0">
                    <mxGeometry x="10" y="10" width="630" height="730" as="geometry"/>
                </mxCell>
                <mxCell id="2" value="&lt;b&gt;&lt;font style=&quot;font-size: 24px;&quot;&gt;秘密鍵&lt;br&gt;&lt;/font&gt;&lt;/b&gt;&lt;br&gt;e.g.,&amp;nbsp;&lt;span style=&quot;font-size: 8pt; font-family: Calibri;&quot;&gt;f8f8a2f43c8376ccb0871305060d7b27b0554d2cc&lt;br&gt;72bccf41b2705608452f315&lt;/span&gt;" style="whiteSpace=wrap;html=1;rounded=1;strokeColor=#3399FF;strokeWidth=3;fillColor=#F0F0F0;fillStyle=auto;" parent="17" vertex="1">
                    <mxGeometry width="340" height="130" as="geometry"/>
                </mxCell>
                <mxCell id="3" value="&lt;b&gt;&lt;font style=&quot;font-size: 24px;&quot;&gt;公開鍵&lt;br&gt;&lt;/font&gt;&lt;/b&gt;&lt;br&gt;e.g.,&amp;nbsp;&lt;span&gt;6e145ccef1033dea239875dd00dfb4fee6e3&lt;br&gt;348b84985c92f103444683bae07b83b5c38e5e2b&lt;br&gt;0c8529d7fa3f64d46daa1ece2d9ac14cab9477d042c&lt;br&gt;84c32ccd0&lt;/span&gt;" style="whiteSpace=wrap;html=1;rounded=1;strokeColor=#3399FF;strokeWidth=3;fillColor=#F0F0F0;fillStyle=auto;" parent="17" vertex="1">
                    <mxGeometry y="200" width="340" height="130" as="geometry"/>
                </mxCell>
                <mxCell id="6" style="edgeStyle=none;html=1;exitX=0.5;exitY=1;exitDx=0;exitDy=0;entryX=0.5;entryY=0;entryDx=0;entryDy=0;fontSize=24;fontColor=#F0F0F0;strokeWidth=6;endArrow=block;endFill=1;strokeColor=#3399FF;" parent="17" source="2" target="3" edge="1">
                    <mxGeometry relative="1" as="geometry"/>
                </mxCell>
                <mxCell id="4" value="&lt;b&gt;&lt;font style=&quot;font-size: 24px;&quot;&gt;公開鍵ハッシュ&lt;br&gt;&lt;/font&gt;&lt;/b&gt;&lt;br&gt;e.g.,&amp;nbsp;&lt;span style=&quot;font-size: 8pt; font-family: Calibri;&quot;&gt;2a5bc342ed616b5ba5732269001d3&lt;br&gt;f1ef827552ae1114027bd3ecf1f086ba0f9&lt;/span&gt;" style="whiteSpace=wrap;html=1;rounded=1;strokeColor=#3399FF;strokeWidth=3;fillColor=#F0F0F0;fillStyle=auto;" parent="17" vertex="1">
                    <mxGeometry y="400" width="340" height="130" as="geometry"/>
                </mxCell>
                <mxCell id="7" style="edgeStyle=none;html=1;exitX=0.5;exitY=1;exitDx=0;exitDy=0;strokeWidth=6;fontSize=24;fontColor=#F0F0F0;endArrow=block;endFill=1;strokeColor=#3399FF;" parent="17" source="3" target="4" edge="1">
                    <mxGeometry relative="1" as="geometry"/>
                </mxCell>
                <mxCell id="5" value="&lt;b&gt;&lt;font style=&quot;font-size: 24px;&quot;&gt;Ethereum Address&lt;br&gt;&lt;/font&gt;&lt;/b&gt;&lt;br&gt;e.g.,&amp;nbsp;&lt;span style=&quot;font-size: 8pt; font-family: Calibri;&quot;&gt;0x001d3f1ef827552ae1114027bd3ecf1f086ba0f9&lt;/span&gt;" style="whiteSpace=wrap;html=1;rounded=1;strokeColor=#3399FF;strokeWidth=3;fillColor=#F0F0F0;fillStyle=auto;" parent="17" vertex="1">
                    <mxGeometry y="600" width="340" height="130" as="geometry"/>
                </mxCell>
                <mxCell id="8" style="edgeStyle=none;html=1;exitX=0.5;exitY=1;exitDx=0;exitDy=0;strokeWidth=6;fontSize=24;fontColor=#F0F0F0;endArrow=block;endFill=1;strokeColor=#3399FF;" parent="17" source="4" target="5" edge="1">
                    <mxGeometry relative="1" as="geometry"/>
                </mxCell>
                <mxCell id="12" style="edgeStyle=none;html=1;exitX=0;exitY=0;exitDx=250;exitDy=55;exitPerimeter=0;strokeWidth=2;fontSize=16;fontColor=#F0F0F0;endArrow=none;endFill=0;strokeColor=#3399FF;" parent="17" source="10" edge="1">
                    <mxGeometry relative="1" as="geometry">
                        <mxPoint x="180" y="155" as="targetPoint"/>
                    </mxGeometry>
                </mxCell>
                <mxCell id="10" value="&lt;font style=&quot;font-size: 16px;&quot;&gt;&lt;b&gt;楕円曲線暗号 (secp256k1)&lt;/b&gt;&lt;/font&gt;" style="shape=note;whiteSpace=wrap;html=1;backgroundOutline=1;fontColor=#000000;darkOpacity=0.05;fillColor=#3399FF;strokeColor=none;fillStyle=solid;direction=west;gradientDirection=north;gradientColor=none;shadow=1;size=20;pointerEvents=1;rounded=1;fontSize=24;" parent="17" vertex="1">
                    <mxGeometry x="380" y="130" width="250" height="90" as="geometry"/>
                </mxCell>
                <mxCell id="13" style="edgeStyle=none;html=1;exitX=0;exitY=0;exitDx=250;exitDy=55;exitPerimeter=0;strokeWidth=2;fontSize=16;fontColor=#F0F0F0;endArrow=none;endFill=0;strokeColor=#3399FF;" parent="17" source="14" edge="1">
                    <mxGeometry relative="1" as="geometry">
                        <mxPoint x="180" y="355" as="targetPoint"/>
                    </mxGeometry>
                </mxCell>
                <mxCell id="14" value="&lt;font style=&quot;font-size: 16px;&quot;&gt;&lt;b&gt;ハッシュ関数 (keccak-256)&lt;/b&gt;&lt;/font&gt;" style="shape=note;whiteSpace=wrap;html=1;backgroundOutline=1;fontColor=#000000;darkOpacity=0.05;fillColor=#3399FF;strokeColor=none;fillStyle=solid;direction=west;gradientDirection=north;gradientColor=none;shadow=1;size=20;pointerEvents=1;rounded=1;fontSize=24;" parent="17" vertex="1">
                    <mxGeometry x="380" y="330" width="250" height="90" as="geometry"/>
                </mxCell>
                <mxCell id="15" style="edgeStyle=none;html=1;exitX=0;exitY=0;exitDx=250;exitDy=55;exitPerimeter=0;strokeWidth=2;fontSize=16;fontColor=#F0F0F0;endArrow=none;endFill=0;strokeColor=#3399FF;" parent="17" source="16" edge="1">
                    <mxGeometry relative="1" as="geometry">
                        <mxPoint x="180" y="555" as="targetPoint"/>
                    </mxGeometry>
                </mxCell>
                <mxCell id="16" value="&lt;font style=&quot;font-size: 12px;&quot;&gt;&lt;b style=&quot;&quot;&gt;&lt;font style=&quot;font-size: 12px;&quot;&gt;後半20byteを取り出して頭に0x (16進数であることのサイン) を付ける&lt;/font&gt;&lt;br&gt;&lt;/b&gt;&lt;/font&gt;" style="shape=note;whiteSpace=wrap;html=1;backgroundOutline=1;fontColor=#000000;darkOpacity=0.05;fillColor=#3399FF;strokeColor=none;fillStyle=solid;direction=west;gradientDirection=north;gradientColor=none;shadow=1;size=20;pointerEvents=1;rounded=1;fontSize=24;" parent="17" vertex="1">
                    <mxGeometry x="380" y="530" width="250" height="90" as="geometry"/>
                </mxCell>
            </root>
        </mxGraphModel>
    </diagram>
</mxfile>